<svg xmlns="http://www.w3.org/2000/svg" viewBox="0 0 120 120" width="120" height="120">
  <!-- Black rounded square background — matches iOS app icon shape -->
  <rect width="120" height="120" rx="27" fill="#000000"/>
  <!-- Spotify logo paths scaled to 120x120 canvas (original viewBox 0 0 24 24 → scale 3.5, offset to center) -->
  <!-- Three arcs: bottom (widest), middle, top (narrowest) — all Spotify green -->
  <g transform="translate(12, 12) scale(4)">
    <path fill="#1DB954" d="M12 2C6.48 2 2 6.48 2 12s4.48 10 10 10 10-4.48 10-10S17.52 2 12 2zm4.65 14.4c-.2.3-.6.4-.9.2-2.5-1.53-5.63-1.87-9.33-1.03-.36.08-.72-.15-.8-.5-.08-.36.15-.72.5-.8 4.05-.92 7.52-.53 10.33 1.2.3.18.4.58.2.93zm1.24-2.75c-.25.38-.75.5-1.13.25-2.85-1.75-7.2-2.26-10.57-1.23-.43.13-.9-.1-1.03-.53-.13-.43.1-.9.53-1.03 3.85-1.17 8.63-.6 11.93 1.41.37.23.5.73.27 1.13zm.1-2.86C14.5 8.9 8.68 8.7 5.2 9.73c-.52.16-1.07-.14-1.23-.65-.16-.52.14-1.07.65-1.23 4-.22 10.35.43 14.43 2.85.46.27.62.86.35 1.32-.27.45-.87.6-1.32.34l-.09-.07z"/>
  </g>
</svg>
